<?xml version="1.0" encoding="utf-8"?><?xml-stylesheet type="text/css" href="SAMM-1.0-scorecard-0.2.css"?>

<!DOCTYPE svg
  PUBLIC "-//W3C//DTD SVG 1.0//EN" "http://www.w3.org/TR/SVG/DTD/svg10.dtd">
<svg xmlns="http://www.w3.org/2000/svg" xmlns:svg="http://www.w3.org/2000/svg" xmlns:xlink="http://www.w3.org/1999/xlink" width="440" height="695"><!--

		Software Assurance Maturity Model (SAMM) v1.0

		http://www.opensamm.org/

		http://www.owasp.org/index.php/Category:Software_Assurance_Maturity_Model


            Single Value Scorecard Chart (using SAMM-1.0-scorecard-0.2-en_US.xsl)

		"Example Organization Scorecard"

		XML/XSD/XSLT and SVG contributed to the OWASP SAMM project by Colin Watson (Watson Hall Ltd).
		Based on roadmap chart created in conjunction with Brenda Larcom (Stach & Liu).
		Inspired and helped by ChartSVG at http://www.hardcoded.net/chartsvg/

		This work is licensed under the Creative Commons Attribution-Share Alike 3.0 License. To view
		a copy of this license, visit http://creativecommons.org/licenses/by-sa/3.0/ or send a letter
		to Creative Commons, 171 Second Street, Suite 300, San Francisco, California, 94105, USA.

	-->
   <defs>
      <line id="levelMarker" class="mmaxis" x1="0" y1="0" x2="0" y2="5"/>
   </defs>
   <rect x="0" y="0" width="440" height="695" class="mmgraph"/>
   <text text-anchor="middle" x="220" y="680" class="mmtitle">Example Organization Scorecard</text>
   <rect class="mmstripe" x="100" y="0" width="430" height="25"/>
   <text text-anchor="end" x="430" y="18" class="mmlabel">Actual Status at April 2012</text>
   <text text-anchor="start" x="10" y="60" class="mmpractice">Strategy &amp;</text>
   <text text-anchor="start" x="10" y="75" class="mmpractice"> Metrics</text>
   <polyline class="mmaxis" points="100,50 100,75 400,75 "/>
   <use xlink:href="#levelMarker" x="100" y="75"/>
   <use xlink:href="#levelMarker" x="200" y="75"/>
   <use xlink:href="#levelMarker" x="300" y="75"/>
   <use xlink:href="#levelMarker" x="400" y="75"/>
   <polygon class="mmgovernance" points="101,52 301,52 301,73 101,73"/>
   <text text-anchor="middle" x="420" y="65" class="mmlevel">2</text>
   <text text-anchor="start" x="10" y="110" class="mmpractice">Policy &amp;</text>
   <text text-anchor="start" x="10" y="125" class="mmpractice"> Compliance</text>
   <polyline class="mmaxis" points="100,100 100,125 400,125 "/>
   <use xlink:href="#levelMarker" x="100" y="125"/>
   <use xlink:href="#levelMarker" x="200" y="125"/>
   <use xlink:href="#levelMarker" x="300" y="125"/>
   <use xlink:href="#levelMarker" x="400" y="125"/>
   <polygon class="mmgovernance" points="101,102 201,102 201,123 101,123"/>
   <text text-anchor="middle" x="420" y="115" class="mmlevel">1</text>
   <text text-anchor="start" x="10" y="160" class="mmpractice">Education &amp;</text>
   <text text-anchor="start" x="10" y="175" class="mmpractice"> Guidance</text>
   <polyline class="mmaxis" points="100,150 100,175 400,175 "/>
   <use xlink:href="#levelMarker" x="100" y="175"/>
   <use xlink:href="#levelMarker" x="200" y="175"/>
   <use xlink:href="#levelMarker" x="300" y="175"/>
   <use xlink:href="#levelMarker" x="400" y="175"/>
   <polygon class="mmgovernance" points="101,152 301,152 301,173 101,173"/>
   <text text-anchor="middle" x="420" y="165" class="mmlevel">2</text>
   <text text-anchor="start" x="10" y="210" class="mmpractice">Threat</text>
   <text text-anchor="start" x="10" y="225" class="mmpractice">Assessment</text>
   <polyline class="mmaxis" points="100,200 100,225 400,225 "/>
   <use xlink:href="#levelMarker" x="100" y="225"/>
   <use xlink:href="#levelMarker" x="200" y="225"/>
   <use xlink:href="#levelMarker" x="300" y="225"/>
   <use xlink:href="#levelMarker" x="400" y="225"/>
   <polygon class="mmconstruction" points="101,202 301,202 301,223 101,223"/>
   <text text-anchor="middle" x="420" y="215" class="mmlevel">2</text>
   <text text-anchor="start" x="10" y="260" class="mmpractice">Security</text>
   <text text-anchor="start" x="10" y="275" class="mmpractice">Requirements</text>
   <polyline class="mmaxis" points="100,250 100,275 400,275 "/>
   <use xlink:href="#levelMarker" x="100" y="275"/>
   <use xlink:href="#levelMarker" x="200" y="275"/>
   <use xlink:href="#levelMarker" x="300" y="275"/>
   <use xlink:href="#levelMarker" x="400" y="275"/>
   <polygon class="mmconstruction" points="101,252 351,252 351,273 101,273"/>
   <text text-anchor="middle" x="420" y="265" class="mmlevel">2+</text>
   <text text-anchor="start" x="10" y="310" class="mmpractice">Secure</text>
   <text text-anchor="start" x="10" y="325" class="mmpractice">Architecture</text>
   <polyline class="mmaxis" points="100,300 100,325 400,325 "/>
   <use xlink:href="#levelMarker" x="100" y="325"/>
   <use xlink:href="#levelMarker" x="200" y="325"/>
   <use xlink:href="#levelMarker" x="300" y="325"/>
   <use xlink:href="#levelMarker" x="400" y="325"/>
   <polygon class="mmconstruction" points="101,302 101,302 101,323 101,323"/>
   <text text-anchor="middle" x="420" y="315" class="mmlevel">0</text>
   <text text-anchor="start" x="10" y="360" class="mmpractice">Design Review</text>
   <text text-anchor="start" x="10" y="375" class="mmpractice"/>
   <polyline class="mmaxis" points="100,350 100,375 400,375 "/>
   <use xlink:href="#levelMarker" x="100" y="375"/>
   <use xlink:href="#levelMarker" x="200" y="375"/>
   <use xlink:href="#levelMarker" x="300" y="375"/>
   <use xlink:href="#levelMarker" x="400" y="375"/>
   <polygon class="mmverification" points="101,352 201,352 201,373 101,373"/>
   <text text-anchor="middle" x="420" y="365" class="mmlevel">1</text>
   <text text-anchor="start" x="10" y="410" class="mmpractice">Code Review</text>
   <text text-anchor="start" x="10" y="425" class="mmpractice"/>
   <polyline class="mmaxis" points="100,400 100,425 400,425 "/>
   <use xlink:href="#levelMarker" x="100" y="425"/>
   <use xlink:href="#levelMarker" x="200" y="425"/>
   <use xlink:href="#levelMarker" x="300" y="425"/>
   <use xlink:href="#levelMarker" x="400" y="425"/>
   <polygon class="mmverification" points="101,402 201,402 201,423 101,423"/>
   <text text-anchor="middle" x="420" y="415" class="mmlevel">1</text>
   <text text-anchor="start" x="10" y="460" class="mmpractice">Security</text>
   <text text-anchor="start" x="10" y="475" class="mmpractice">Testing</text>
   <polyline class="mmaxis" points="100,450 100,475 400,475 "/>
   <use xlink:href="#levelMarker" x="100" y="475"/>
   <use xlink:href="#levelMarker" x="200" y="475"/>
   <use xlink:href="#levelMarker" x="300" y="475"/>
   <use xlink:href="#levelMarker" x="400" y="475"/>
   <polygon class="mmverification" points="101,452 301,452 301,473 101,473"/>
   <text text-anchor="middle" x="420" y="465" class="mmlevel">2</text>
   <text text-anchor="start" x="10" y="510" class="mmpractice">Vulnerability</text>
   <text text-anchor="start" x="10" y="525" class="mmpractice"> Management</text>
   <polyline class="mmaxis" points="100,500 100,525 400,525 "/>
   <use xlink:href="#levelMarker" x="100" y="525"/>
   <use xlink:href="#levelMarker" x="200" y="525"/>
   <use xlink:href="#levelMarker" x="300" y="525"/>
   <use xlink:href="#levelMarker" x="400" y="525"/>
   <polygon class="mmdeployment" points="101,502 151,502 151,523 101,523"/>
   <text text-anchor="middle" x="420" y="515" class="mmlevel">0+</text>
   <text text-anchor="start" x="10" y="560" class="mmpractice">Environment</text>
   <text text-anchor="start" x="10" y="575" class="mmpractice">Hardening</text>
   <polyline class="mmaxis" points="100,550 100,575 400,575 "/>
   <use xlink:href="#levelMarker" x="100" y="575"/>
   <use xlink:href="#levelMarker" x="200" y="575"/>
   <use xlink:href="#levelMarker" x="300" y="575"/>
   <use xlink:href="#levelMarker" x="400" y="575"/>
   <polygon class="mmdeployment" points="101,552 201,552 201,573 101,573"/>
   <text text-anchor="middle" x="420" y="565" class="mmlevel">1</text>
   <text text-anchor="start" x="10" y="610" class="mmpractice">Operational</text>
   <text text-anchor="start" x="10" y="625" class="mmpractice">Enablement</text>
   <polyline class="mmaxis" points="100,600 100,625 400,625 "/>
   <use xlink:href="#levelMarker" x="100" y="625"/>
   <use xlink:href="#levelMarker" x="200" y="625"/>
   <use xlink:href="#levelMarker" x="300" y="625"/>
   <use xlink:href="#levelMarker" x="400" y="625"/>
   <polygon class="mmdeployment" points="101,602 101,602 101,623 101,623"/>
   <text text-anchor="middle" x="420" y="615" class="mmlevel">0</text>
</svg>